name D:\school\WTK\thesis\model\3dpredictsim\Results\MidTarsalJoint\Fal_s1_bCst_PF_Natali2010_ls150_MT_nl_fitted6_MTP_T5_ig24.mot
datacolumns 128
datarows 4
range 0.00000000 0.03412299
endheader
time	pelvis_tilt	pelvis_list	pelvis_rotation	pelvis_tx	pelvis_ty	pelvis_tz	hip_flexion_l	hip_adduction_l	hip_rotation_l	hip_flexion_r	hip_adduction_r	hip_rotation_r	knee_angle_l	knee_angle_r	ankle_angle_l	ankle_angle_r	subtalar_angle_l	subtalar_angle_r	tmt_angle_l	tmt_angle_r	mtp_angle_l	mtp_angle_r	lumbar_extension	lumbar_bending	lumbar_rotation	arm_flex_l	arm_add_l	arm_rot_l	arm_flex_r	arm_add_r	arm_rot_r	elbow_flex_l	elbow_flex_r	pro_sup_l	pro_sup_r	glut_med1_l/activation	glut_med2_l/activation	glut_med3_l/activation	glut_min1_l/activation	glut_min2_l/activation	glut_min3_l/activation	semimem_l/activation	semiten_l/activation	bifemlh_l/activation	bifemsh_l/activation	sar_l/activation	add_long_l/activation	add_brev_l/activation	add_mag1_l/activation	add_mag2_l/activation	add_mag3_l/activation	tfl_l/activation	pect_l/activation	grac_l/activation	glut_max1_l/activation	glut_max2_l/activation	glut_max3_l/activation	iliacus_l/activation	psoas_l/activation	quad_fem_l/activation	gem_l/activation	peri_l/activation	rect_fem_l/activation	vas_med_l/activation	vas_int_l/activation	vas_lat_l/activation	med_gas_l/activation	lat_gas_l/activation	soleus_l/activation	tib_post_l/activation	flex_dig_l/activation	flex_hal_l/activation	tib_ant_l/activation	per_brev_l/activation	per_long_l/activation	per_tert_l/activation	ext_dig_l/activation	ext_hal_l/activation	ercspn_l/activation	intobl_l/activation	extobl_l/activation	glut_med1_r/activation	glut_med2_r/activation	glut_med3_r/activation	glut_min1_r/activation	glut_min2_r/activation	glut_min3_r/activation	semimem_r/activation	semiten_r/activation	bifemlh_r/activation	bifemsh_r/activation	sar_r/activation	add_long_r/activation	add_brev_r/activation	add_mag1_r/activation	add_mag2_r/activation	add_mag3_r/activation	tfl_r/activation	pect_r/activation	grac_r/activation	glut_max1_r/activation	glut_max2_r/activation	glut_max3_r/activation	iliacus_r/activation	psoas_r/activation	quad_fem_r/activation	gem_r/activation	peri_r/activation	rect_fem_r/activation	vas_med_r/activation	vas_int_r/activation	vas_lat_r/activation	med_gas_r/activation	lat_gas_r/activation	soleus_r/activation	tib_post_r/activation	flex_dig_r/activation	flex_hal_r/activation	tib_ant_r/activation	per_brev_r/activation	per_long_r/activation	per_tert_r/activation	ext_dig_r/activation	ext_hal_r/activation	ercspn_r/activation	intobl_r/activation	extobl_r/activation	
          0.00000000	         -2.93005618	         -1.97565420	          5.30449976	          0.00000000	          0.91829191	         -0.00234012	        -16.53491186	         -0.76529676	          6.56328896	         29.89106167	          3.20666785	         -2.08355003	         -7.86220656	        -11.62492149	         -2.40118215	          5.53136656	          8.47646611	         -4.88332797	          6.93094056	         -0.02826234	          9.45194362	          1.37130700	         -1.94051204	          0.16603823	         -1.91563036	          4.48936109	        -13.45049000	         14.96195905	         -5.36643170	        -13.45707031	          5.43441866	         34.67415017	         17.98491591	         86.51662706	         86.51662706	          0.33275293	          0.10932022	          0.08303618	          0.30862534	          0.21275147	          0.11909903	          0.05000295	          0.05000059	          0.05000040	          0.06357090	          0.11695296	          0.05000037	          0.05000032	          0.05000043	          0.05000121	          0.05000090	          0.31643294	          0.05000149	          0.05000085	          0.05003227	          0.05000863	          0.05000234	          0.40514549	          0.62475705	          0.05000038	          0.05000130	          0.06017154	          0.20839716	          0.05000182	          0.05000100	          0.05000094	          0.30774707	          0.40588792	          0.36473730	          0.28313189	          0.26559533	          0.35150621	          0.05000010	          0.06019485	          0.13972407	          0.05000065	          0.05000017	          0.05000055	          0.05000003	          0.05000005	          0.05000010	          0.05000212	          0.05000105	          0.05947799	          0.05000033	          0.05000057	          0.05000279	          0.19525070	          0.05948060	          0.07706502	          0.05000796	          0.05000118	          0.10240115	          0.18977348	          0.19645319	          0.16595681	          0.09783949	          0.05947836	          0.05003401	          0.12939253	          0.05947867	          0.05947942	          0.10293055	          0.05000032	          0.05000050	          0.23128554	          0.05003411	          0.05000108	          0.05000039	          0.07896630	          0.08014197	          0.06652066	          0.05947866	          0.05947870	          0.05947860	          0.05000060	          0.05000152	          0.05000937	          0.45947957	          0.29167135	          0.18529137	          0.08355974	          0.45333310	          0.09267428	          0.05947859	          0.12660099	          0.10550954	
          0.01137433	         -2.92860123	         -2.07196454	          5.56132662	          0.01695208	          0.91742674	         -0.00211162	        -16.38319575	         -1.06079582	          6.35971445	         29.31752628	          3.60916928	         -1.89868070	         -9.84082986	        -11.71120120	         -2.96416534	          4.86164525	          9.44383989	         -5.28444181	          6.35651312	         -0.13942933	         10.80102062	          1.26503997	         -1.75694203	          0.37989967	         -1.98945690	          4.26304766	        -13.45701629	         15.37381307	         -6.22501023	        -13.45212290	          5.17195374	         35.80107637	         17.58510251	         86.51662706	         86.51662706	          0.27972515	          0.09189884	          0.06980352	          0.25944261	          0.17884722	          0.10011936	          0.05000610	          0.05000110	          0.05000160	          0.05344033	          0.09831565	          0.10672863	          0.09204806	          0.05367804	          0.05003258	          0.05001901	          0.26600610	          0.08853876	          0.05005241	          0.05000810	          0.05000397	          0.05000436	          0.34058101	          0.52984953	          0.05000387	          0.05075446	          0.05947894	          0.17518690	          0.05000223	          0.14923334	          0.13824392	          0.25870402	          0.34120505	          0.32154245	          0.24510636	          0.22327138	          0.29549200	          0.05000007	          0.05060243	          0.13261039	          0.05000030	          0.05000008	          0.05000037	          0.05000011	          0.07289114	          0.05863776	          0.05000032	          0.05000048	          0.05000023	          0.05947591	          0.05000348	          0.05000047	          0.16413536	          0.05000179	          0.06478389	          0.05000078	          0.05003916	          0.11910655	          0.24649957	          0.26575393	          0.17027801	          0.08226052	          0.05000035	          0.07077621	          0.10877456	          0.05000073	          0.05000090	          0.11670189	          0.07075357	          0.07075145	          0.56280503	          0.19889788	          0.16242302	          0.08416679	          0.20637449	          0.20559112	          0.17672731	          0.05000007	          0.05000014	          0.05000001	          0.05000070	          0.05000298	          0.05000180	          0.52955487	          0.24519059	          0.18690955	          0.24560866	          0.48392074	          0.19996042	          0.05000008	          0.10642567	          0.08869539	
          0.02274866	         -2.92275491	         -2.16825880	          5.78965594	          0.03425739	          0.91657861	         -0.00190212	        -16.18957810	         -1.35369200	          6.14989109	         28.59898279	          3.93175397	         -1.64910827	        -11.88660081	        -12.14482759	         -3.61448243	          4.28805201	         10.36248673	         -5.69663192	          5.56507393	         -0.37581485	         12.23467392	          1.22301808	         -1.54843346	          0.60191096	         -2.05221530	          3.95452778	        -13.46112170	         15.71189772	         -7.11563815	        -13.45385846	          4.97327198	         36.90629941	         17.22246432	         86.51662706	         86.51662706	          0.34983972	          0.07725376	          0.05867964	          0.21809790	          0.15034602	          0.08416430	          0.05001982	          0.05000238	          0.05000168	          0.05000046	          0.08264845	          0.13981582	          0.10222475	          0.05948236	          0.05948104	          0.05947911	          0.22361763	          0.08375926	          0.05006335	          0.05004550	          0.05005854	          0.05947449	          0.28630614	          0.51402638	          0.05003594	          0.05000374	          0.05000059	          0.14726895	          0.11623178	          0.12545389	          0.11621470	          0.21747653	          0.28683010	          0.27030094	          0.20604595	          0.18769086	          0.24840224	          0.05000010	          0.05000119	          0.15850854	          0.05000046	          0.05000024	          0.05000057	          0.05355911	          0.06127510	          0.05947898	          0.24078480	          0.05000057	          0.14421991	          0.05000041	          0.05000052	          0.20194002	          0.15199252	          0.08607557	          0.07495606	          0.05000033	          0.05000131	          0.10012570	          0.20721725	          0.22340333	          0.14314289	          0.09355357	          0.05000352	          0.05949969	          0.09144570	          0.05000326	          0.05965189	          0.09810436	          0.05947855	          0.05947735	          0.47311558	          0.16720134	          0.13654047	          0.07075385	          0.17348643	          0.17282789	          0.14856385	          0.05797978	          0.05947786	          0.05851118	          0.05000259	          0.05000304	          0.05000337	          0.44516425	          0.28473914	          0.15712416	          0.20646821	          0.53933652	          0.28355875	          0.05000005	          0.11573087	          0.07456077	
          0.03412299	         -2.91422876	         -2.26194128	          5.98238147	          0.05174995	          0.91577265	         -0.00169123	        -15.93735619	         -1.63862032	          5.94410406	         27.74807509	          4.19129752	         -1.39292705	        -14.00592309	        -12.50713398	         -4.31302041	          3.62779147	         11.22239368	         -6.10464015	          4.49730549	         -0.45541734	         13.76580854	          1.28454403	         -1.33211904	          0.82875073	         -2.10517850	          3.58653401	        -13.46663025	         15.98642091	         -7.99748588	        -13.46110791	          4.85100588	         37.98158034	         16.87357603	         86.51662706	         86.51662706	          0.32084414	          0.06494255	          0.05000024	          0.37757112	          0.12638689	          0.07075192	          0.05000508	          0.05000040	          0.05000035	          0.05000073	          0.07072512	          0.11754230	          0.08593433	          0.05000357	          0.05000333	          0.05000135	          0.24268476	          0.07042381	          0.05000140	          0.05000329	          0.05000172	          0.05000111	          0.24068033	          0.47473628	          0.05000025	          0.05000168	          0.05000115	          0.12717025	          0.09771022	          0.12427530	          0.11910492	          0.18281913	          0.24112041	          0.22722534	          0.17321020	          0.15778037	          0.20881664	          0.06461766	          0.10596580	          0.15776025	          0.05000097	          0.10866312	          0.05000146	          0.06587735	          0.05151021	          0.05000036	          0.30084388	          0.26544202	          0.30740519	          0.17779705	          0.21297705	          0.16978994	          0.12777079	          0.07238457	          0.06301110	          0.08416727	          0.05002737	          0.08416958	          0.17419486	          0.18780176	          0.12033201	          0.11844335	          0.05000112	          0.05001854	          0.07688983	          0.18982765	          0.14296121	          0.10037392	          0.05000027	          0.05000025	          0.39771926	          0.14055623	          0.15123458	          0.05947847	          0.14583971	          0.14528632	          0.12488879	          0.05000034	          0.05000070	          0.05000006	          0.05000010	          0.05000041	          0.05000049	          0.56367228	          0.33589390	          0.17915217	          0.54867151	          0.52907046	          0.23837070	          0.07178027	          0.10012356	          0.06267867	
